<svg id="visual" viewBox="0 0 900 600" width="900" height="600" xmlns="http://www.w3.org/2000/svg" xmlns:xlink="http://www.w3.org/1999/xlink" version="1.1"><rect x="0" y="0" width="900" height="600" fill="#FFFFFF"></rect><defs><linearGradient id="grad1_0" x1="33.3%" y1="100%" x2="100%" y2="0%"><stop offset="20%" stop-color="#ffffff" stop-opacity="1"></stop><stop offset="80%" stop-color="#ffffff" stop-opacity="1"></stop></linearGradient></defs><defs><linearGradient id="grad2_0" x1="0%" y1="100%" x2="66.7%" y2="0%"><stop offset="20%" stop-color="#ffffff" stop-opacity="1"></stop><stop offset="80%" stop-color="#ffffff" stop-opacity="1"></stop></linearGradient></defs><g transform="translate(900, 600)"><path d="M-270.4 0C-225.2 -13.8 -179.9 -27.7 -175.9 -57.2C-172 -86.7 -209.3 -131.9 -202.3 -146.9C-195.3 -162 -144 -147 -119.9 -165C-95.8 -183.1 -99 -234.1 -83.6 -257.2C-68.1 -280.2 -34.1 -275.3 0 -270.4L0 0Z" fill="#001220"></path></g><g transform="translate(0, 0)"><path d="M270.4 0C252.6 23 234.9 46 230.2 74.8C225.4 103.6 233.8 138.2 218.8 158.9C203.7 179.7 165.3 186.4 135.2 186.1C105.1 185.7 83.3 178.3 62.1 191.2C41 204 20.5 237.2 0 270.4L0 0Z" fill="#001220"></path></g></svg>